<?xml version="1.0" encoding="utf-8"?>
<!-- Generator: Adobe Illustrator 19.2.1, SVG Export Plug-In . SVG Version: 6.00 Build 0)  -->
<svg version="1.1" id="layer" xmlns="http://www.w3.org/2000/svg" xmlns:xlink="http://www.w3.org/1999/xlink" x="0px" y="0px"
	 viewBox="20.92 270.31 600.11 101.60" xml:space="preserve">
<style type="text/css">
	.st0{fill:#275DA6;}
	.st1{fill:none;stroke:#275DA6;stroke-width:2.2992;stroke-miterlimit:10;}
</style>
<polygon class="st0" points="129.8,273.1 129.8,312.6 157.8,312.6 157.8,305.9 137.8,305.9 137.8,273.1 "/>
<g>
	<path class="st0" d="M176.8,298.7c-1,0.3-2.5,0.7-4.6,1.2c-2.1,0.5-3.5,0.9-4.2,1.3c-1,0.7-1.5,1.6-1.5,2.7c0,1.1,0.4,2,1.2,2.8
		c0.8,0.8,1.8,1.2,3,1.2c1.4,0,2.7-0.5,3.9-1.4c0.9-0.7,1.5-1.5,1.8-2.5c0.2-0.6,0.3-1.9,0.3-3.7V298.7z M166.6,292.6l-6.9-1.2
		c0.8-2.8,2.1-4.8,4-6.2c1.9-1.3,4.7-2,8.5-2c3.4,0,5.9,0.4,7.6,1.2c1.7,0.8,2.8,1.8,3.5,3.1c0.7,1.2,1,3.5,1,6.8l-0.1,8.9
		c0,2.5,0.1,4.4,0.4,5.6c0.2,1.2,0.7,2.5,1.4,3.9h-7.5c-0.2-0.5-0.4-1.3-0.7-2.3c-0.1-0.4-0.2-0.7-0.3-0.9c-1.3,1.3-2.7,2.2-4.2,2.9
		c-1.5,0.6-3.1,0.9-4.7,0.9c-3,0-5.3-0.8-7-2.4c-1.7-1.6-2.6-3.6-2.6-6.1c0-1.6,0.4-3.1,1.2-4.4c0.8-1.3,1.9-2.3,3.3-2.9
		c1.4-0.7,3.4-1.3,6.1-1.8c3.6-0.7,6-1.3,7.4-1.9V293c0-1.5-0.4-2.5-1.1-3.1c-0.7-0.6-2.1-0.9-4.1-0.9c-1.4,0-2.4,0.3-3.2,0.8
		C167.7,290.3,167.1,291.2,166.6,292.6"/>
	<polygon class="st0" points="194.7,312.6 185.6,283.8 193,283.8 198.4,302.7 203.3,283.8 210.7,283.8 215.5,302.7 221,283.8 
		228.5,283.8 219.3,312.6 211.9,312.6 207,294.1 202.1,312.6 	"/>
	<path class="st0" d="M237.3,312.6h-7.6v-28.8h7.1v4.1c1.2-1.9,2.3-3.2,3.3-3.8c1-0.6,2.1-0.9,3.3-0.9c1.7,0,3.4,0.5,5,1.4l-2.4,6.6
		c-1.3-0.8-2.5-1.2-3.6-1.2c-1.1,0-2,0.3-2.7,0.9c-0.7,0.6-1.3,1.6-1.8,3.2c-0.4,1.5-0.6,4.8-0.6,9.7V312.6z"/>
	<path class="st0" d="M266.2,295.7c-0.1-2.2-0.6-3.9-1.7-5c-1.1-1.1-2.4-1.7-4-1.7c-1.7,0-3,0.6-4.1,1.8c-1.1,1.2-1.6,2.9-1.6,4.9
		H266.2z M265.8,303.4l7.6,1.3c-1,2.8-2.5,4.9-4.6,6.4c-2.1,1.5-4.7,2.2-7.9,2.2c-5,0-8.7-1.6-11.1-4.9c-1.9-2.6-2.9-5.9-2.9-9.9
		c0-4.8,1.2-8.5,3.7-11.2c2.5-2.7,5.7-4.1,9.5-4.1c4.3,0,7.7,1.4,10.1,4.3c2.5,2.8,3.7,7.2,3.6,13h-19.1c0.1,2.3,0.7,4,1.8,5.3
		c1.2,1.3,2.6,1.9,4.4,1.9c1.2,0,2.2-0.3,3-1C264.8,305.9,265.4,304.9,265.8,303.4"/>
	<path class="st0" d="M303.7,312.6h-7.6v-14.7c0-3.1-0.2-5.1-0.5-6c-0.3-0.9-0.9-1.6-1.6-2.1c-0.7-0.5-1.6-0.8-2.6-0.8
		c-1.3,0-2.5,0.4-3.6,1.1c-1,0.7-1.8,1.7-2.2,2.9c-0.4,1.2-0.6,3.4-0.6,6.6v13h-7.6v-28.8h7.1v4.2c2.5-3.3,5.7-4.9,9.5-4.9
		c1.7,0,3.2,0.3,4.6,0.9c1.4,0.6,2.4,1.4,3.2,2.3c0.7,0.9,1.2,2,1.5,3.2c0.3,1.2,0.4,2.9,0.4,5.1V312.6z"/>
	<path class="st0" d="M334.1,292.3l-7.5,1.4c-0.3-1.5-0.8-2.6-1.7-3.4c-0.9-0.8-2.1-1.1-3.5-1.1c-1.9,0-3.4,0.7-4.5,2
		c-1.1,1.3-1.7,3.5-1.7,6.6c0,3.4,0.6,5.8,1.7,7.2c1.1,1.4,2.7,2.1,4.6,2.1c1.4,0,2.6-0.4,3.6-1.2c0.9-0.8,1.6-2.2,1.9-4.2l7.5,1.3
		c-0.8,3.4-2.3,6-4.5,7.8c-2.2,1.8-5.2,2.6-8.9,2.6c-4.2,0-7.6-1.3-10.1-4c-2.5-2.7-3.8-6.3-3.8-11c0-4.7,1.3-8.4,3.8-11.1
		c2.5-2.7,5.9-4,10.2-4c3.5,0,6.3,0.7,8.4,2.3C331.7,286.9,333.2,289.2,334.1,292.3"/>
	<path class="st0" d="M354.5,295.7c-0.1-2.2-0.6-3.9-1.7-5c-1.1-1.1-2.4-1.7-4-1.7c-1.7,0-3,0.6-4.1,1.8c-1.1,1.2-1.6,2.9-1.6,4.9
		H354.5z M354,303.4l7.6,1.3c-1,2.8-2.5,4.9-4.6,6.4c-2.1,1.5-4.7,2.2-7.9,2.2c-5,0-8.7-1.6-11.1-4.9c-1.9-2.6-2.9-5.9-2.9-9.9
		c0-4.8,1.2-8.5,3.7-11.2c2.5-2.7,5.6-4.1,9.5-4.1c4.3,0,7.7,1.4,10.1,4.3c2.5,2.8,3.7,7.2,3.6,13h-19.1c0.1,2.3,0.7,4,1.9,5.3
		c1.2,1.3,2.6,1.9,4.4,1.9c1.2,0,2.2-0.3,3-1C353,305.9,353.6,304.9,354,303.4"/>
	<polygon class="st0" points="378.9,273.1 378.9,312.6 406.9,312.6 406.9,305.9 387,305.9 387,273.1 	"/>
	<path class="st0" d="M410.1,312.6h7.6v-28.8h-7.6V312.6z M410.1,279.9h7.6v-7.1h-7.6V279.9z"/>
	<path class="st0" d="M430.9,312.6l-11.6-28.8h8l5.4,14.7l1.6,4.9c0.4-1.2,0.7-2.1,0.8-2.5c0.3-0.8,0.5-1.6,0.8-2.4l5.5-14.7h7.8
		l-11.5,28.8H430.9z"/>
	<path class="st0" d="M468.5,295.7c-0.1-2.2-0.6-3.9-1.7-5c-1.1-1.1-2.4-1.7-4-1.7c-1.7,0-3,0.6-4.1,1.8c-1.1,1.2-1.6,2.9-1.6,4.9
		H468.5z M468.1,303.4l7.6,1.3c-1,2.8-2.5,4.9-4.6,6.4c-2.1,1.5-4.7,2.2-7.9,2.2c-5,0-8.7-1.6-11.1-4.9c-1.9-2.6-2.8-5.9-2.8-9.9
		c0-4.8,1.3-8.5,3.7-11.2c2.5-2.7,5.6-4.1,9.5-4.1c4.3,0,7.7,1.4,10.1,4.3c2.5,2.8,3.7,7.2,3.6,13H457c0.1,2.3,0.7,4,1.9,5.3
		c1.2,1.3,2.6,1.9,4.4,1.9c1.2,0,2.2-0.3,3-1C467.1,305.9,467.7,304.9,468.1,303.4"/>
	<path class="st0" d="M487.1,312.6h-7.6v-28.8h7.1v4.1c1.2-1.9,2.3-3.2,3.3-3.8c1-0.6,2.1-0.9,3.3-0.9c1.7,0,3.4,0.5,5,1.4l-2.4,6.6
		c-1.3-0.8-2.5-1.2-3.6-1.2c-1.1,0-2,0.3-2.7,0.9c-0.7,0.6-1.3,1.6-1.7,3.2c-0.4,1.5-0.6,4.8-0.6,9.7V312.6z"/>
	<path class="st0" d="M498.4,283.8h7v3.9c2.5-3.1,5.5-4.6,9-4.6c1.9,0,3.4,0.4,4.8,1.1c1.4,0.8,2.5,1.9,3.3,3.4
		c1.3-1.5,2.6-2.7,4.1-3.4c1.5-0.8,3-1.1,4.7-1.1c2.1,0,3.9,0.4,5.4,1.3c1.5,0.9,2.6,2.1,3.3,3.8c0.5,1.2,0.8,3.2,0.8,6v18.4h-7.6
		v-16.5c0-2.9-0.3-4.7-0.8-5.5c-0.7-1.1-1.8-1.6-3.2-1.6c-1.1,0-2.1,0.3-3,1c-0.9,0.6-1.6,1.6-2,2.9c-0.4,1.3-0.6,3.2-0.6,5.9v13.8
		h-7.6v-15.8c0-2.8-0.1-4.6-0.4-5.4c-0.3-0.8-0.7-1.4-1.3-1.8c-0.6-0.4-1.3-0.6-2.3-0.6c-1.2,0-2.2,0.3-3.2,1c-1,0.6-1.6,1.6-2,2.7
		c-0.4,1.2-0.6,3.2-0.6,5.9v14h-7.6V283.8z"/>
	<path class="st0" d="M551.9,298.2c0,2.9,0.7,5,2,6.6c1.4,1.5,3,2.3,5,2.3c2,0,3.7-0.8,5-2.3c1.3-1.5,2-3.7,2-6.6c0-2.8-0.7-5-2-6.5
		c-1.3-1.5-3-2.3-5-2.3c-2,0-3.7,0.8-5,2.3C552.5,293.1,551.9,295.3,551.9,298.2 M544.1,297.8c0-2.5,0.6-5,1.9-7.3
		c1.2-2.4,3-4.2,5.3-5.4c2.3-1.2,4.8-1.9,7.7-1.9c4.4,0,7.9,1.4,10.7,4.2c2.8,2.8,4.2,6.4,4.2,10.7c0,4.4-1.4,8-4.2,10.8
		c-2.8,2.9-6.3,4.3-10.6,4.3c-2.6,0-5.2-0.6-7.6-1.8c-2.4-1.2-4.2-2.9-5.5-5.2C544.7,303.9,544.1,301.1,544.1,297.8"/>
	<path class="st0" d="M584.5,312.6h-7.6v-28.8h7.1v4.1c1.2-1.9,2.3-3.2,3.3-3.8c1-0.6,2.1-0.9,3.3-0.9c1.7,0,3.4,0.5,5,1.4l-2.4,6.6
		c-1.3-0.8-2.5-1.2-3.6-1.2c-1.1,0-2,0.3-2.7,0.9c-0.7,0.6-1.3,1.6-1.7,3.2c-0.4,1.5-0.6,4.8-0.6,9.7V312.6z"/>
	<path class="st0" d="M613.5,295.7c-0.1-2.2-0.6-3.9-1.7-5c-1.1-1.1-2.4-1.7-4-1.7c-1.7,0-3,0.6-4.1,1.8c-1.1,1.2-1.6,2.9-1.6,4.9
		H613.5z M613,303.4l7.6,1.3c-1,2.8-2.5,4.9-4.6,6.4c-2.1,1.5-4.7,2.2-7.9,2.2c-5,0-8.7-1.6-11.1-4.9c-1.9-2.6-2.9-5.9-2.9-9.9
		c0-4.8,1.2-8.5,3.7-11.2c2.5-2.7,5.6-4.1,9.5-4.1c4.3,0,7.7,1.4,10.1,4.3c2.5,2.8,3.7,7.2,3.5,13h-19.1c0.1,2.3,0.7,4,1.8,5.3
		c1.2,1.3,2.7,1.9,4.4,1.9c1.2,0,2.2-0.3,3-1C612,305.9,612.6,304.9,613,303.4"/>
	<polygon class="st0" points="129.6,360.2 129.6,320.4 137.4,320.4 153.7,347 153.7,320.4 161.2,320.4 161.2,360.2 153.1,360.2 
		137.1,334.3 137.1,360.2 	"/>
	<path class="st0" d="M183,346.4c-1,0.3-2.5,0.7-4.6,1.2c-2.1,0.5-3.5,0.9-4.2,1.3c-1,0.7-1.5,1.6-1.5,2.7c0,1.1,0.4,2,1.2,2.8
		c0.8,0.8,1.8,1.2,3,1.2c1.4,0,2.7-0.4,3.9-1.4c0.9-0.7,1.5-1.5,1.8-2.5c0.2-0.6,0.3-1.9,0.3-3.7V346.4z M172.8,340.2l-6.9-1.2
		c0.8-2.8,2.1-4.8,4-6.2c1.9-1.3,4.7-2,8.5-2c3.4,0,5.9,0.4,7.6,1.2c1.7,0.8,2.8,1.8,3.5,3.1c0.7,1.2,1,3.5,1,6.8l-0.1,8.9
		c0,2.5,0.1,4.4,0.4,5.6c0.2,1.2,0.7,2.5,1.4,3.9h-7.5c-0.2-0.5-0.4-1.3-0.7-2.3c-0.1-0.5-0.2-0.7-0.3-0.9c-1.3,1.3-2.7,2.2-4.2,2.9
		c-1.5,0.6-3.1,0.9-4.7,0.9c-3,0-5.3-0.8-7-2.4c-1.7-1.6-2.6-3.6-2.6-6.1c0-1.6,0.4-3.1,1.2-4.3c0.8-1.3,1.9-2.3,3.3-2.9
		c1.4-0.7,3.4-1.3,6.1-1.8c3.6-0.7,6-1.3,7.4-1.9v-0.8c0-1.5-0.4-2.5-1.1-3.1c-0.7-0.6-2.1-0.9-4.1-0.9c-1.4,0-2.4,0.3-3.2,0.8
		C173.9,337.9,173.3,338.8,172.8,340.2"/>
	<path class="st0" d="M208.7,331.4v6.1h-5.2v11.6c0,2.4,0.1,3.7,0.1,4.1c0.1,0.4,0.3,0.7,0.7,1c0.4,0.3,0.8,0.4,1.3,0.4
		c0.7,0,1.7-0.2,3.1-0.7l0.7,5.9c-1.8,0.8-3.8,1.1-6,1.1c-1.4,0-2.6-0.2-3.7-0.7c-1.1-0.5-1.9-1.1-2.4-1.8c-0.5-0.7-0.9-1.7-1.1-3
		c-0.2-0.9-0.2-2.7-0.2-5.4v-12.6h-3.5v-6.1h3.5v-5.7l7.6-4.4v10.2H208.7z"/>
	<path class="st0" d="M211.5,331.4h7.6v28.8h-7.6V331.4z M211.5,320.4h7.6v7.1h-7.6V320.4z"/>
	<path class="st0" d="M230.5,345.8c0,2.9,0.7,5,2,6.6c1.4,1.5,3,2.3,5,2.3c2,0,3.7-0.8,5-2.3c1.3-1.5,2-3.7,2-6.6c0-2.8-0.7-5-2-6.5
		c-1.3-1.5-3-2.3-5-2.3c-2,0-3.7,0.8-5,2.3C231.1,340.7,230.5,342.9,230.5,345.8 M222.7,345.4c0-2.5,0.6-5,1.9-7.3
		c1.2-2.4,3-4.2,5.3-5.4c2.3-1.2,4.8-1.9,7.7-1.9c4.4,0,7.9,1.4,10.7,4.2c2.8,2.8,4.2,6.4,4.2,10.7c0,4.4-1.4,8-4.2,10.8
		c-2.8,2.9-6.4,4.3-10.6,4.3c-2.6,0-5.2-0.6-7.6-1.8c-2.4-1.2-4.2-2.9-5.5-5.2C223.3,351.5,222.7,348.7,222.7,345.4"/>
	<path class="st0" d="M282.1,360.2h-7.6v-14.7c0-3.1-0.2-5.1-0.5-6c-0.3-0.9-0.9-1.6-1.6-2.1c-0.7-0.5-1.6-0.8-2.6-0.8
		c-1.3,0-2.5,0.4-3.6,1.1c-1,0.7-1.8,1.7-2.2,2.9c-0.4,1.2-0.6,3.4-0.6,6.6v13.1h-7.6v-28.8h7.1v4.2c2.5-3.3,5.7-4.9,9.5-4.9
		c1.7,0,3.2,0.3,4.6,0.9c1.4,0.6,2.4,1.4,3.2,2.3c0.7,0.9,1.2,2,1.5,3.2c0.3,1.2,0.4,2.9,0.4,5.1V360.2z"/>
	<path class="st0" d="M303.2,346.4c-1,0.3-2.5,0.7-4.6,1.2c-2.1,0.5-3.5,0.9-4.2,1.3c-1,0.7-1.5,1.6-1.5,2.7c0,1.1,0.4,2,1.2,2.8
		c0.8,0.8,1.8,1.2,3,1.2c1.4,0,2.7-0.4,3.9-1.4c0.9-0.7,1.5-1.5,1.8-2.5c0.2-0.6,0.3-1.9,0.3-3.7V346.4z M293,340.2l-6.9-1.2
		c0.8-2.8,2.1-4.8,4-6.2c1.9-1.3,4.7-2,8.5-2c3.4,0,5.9,0.4,7.6,1.2c1.7,0.8,2.8,1.8,3.5,3.1c0.7,1.2,1,3.5,1,6.8l-0.1,8.9
		c0,2.5,0.1,4.4,0.4,5.6c0.2,1.2,0.7,2.5,1.4,3.9h-7.5c-0.2-0.5-0.4-1.3-0.7-2.3c-0.1-0.5-0.2-0.7-0.3-0.9c-1.3,1.3-2.7,2.2-4.2,2.9
		c-1.5,0.6-3.1,0.9-4.7,0.9c-3,0-5.3-0.8-7-2.4c-1.7-1.6-2.6-3.6-2.6-6.1c0-1.6,0.4-3.1,1.2-4.3c0.8-1.3,1.9-2.3,3.3-2.9
		c1.4-0.7,3.4-1.3,6.1-1.8c3.6-0.7,6-1.3,7.4-1.9v-0.8c0-1.5-0.4-2.5-1.1-3.1c-0.7-0.6-2.1-0.9-4.1-0.9c-1.4,0-2.4,0.3-3.2,0.8
		C294.1,337.9,293.4,338.8,293,340.2"/>
	<rect x="315.7" y="320.4" class="st0" width="7.6" height="39.8"/>
	<polygon class="st0" points="341.8,360.2 341.8,320.8 349.8,320.8 349.8,353.5 369.8,353.5 369.8,360.2 	"/>
	<path class="st0" d="M388.9,346.4c-1,0.3-2.5,0.7-4.6,1.2c-2.1,0.5-3.5,0.9-4.2,1.3c-1,0.7-1.5,1.6-1.5,2.7c0,1.1,0.4,2,1.2,2.8
		c0.8,0.8,1.8,1.2,3,1.2c1.4,0,2.7-0.4,3.9-1.4c0.9-0.7,1.5-1.5,1.8-2.5c0.2-0.6,0.3-1.9,0.3-3.7V346.4z M378.7,340.2l-6.9-1.2
		c0.8-2.8,2.1-4.8,4-6.2c1.9-1.3,4.7-2,8.5-2c3.4,0,5.9,0.4,7.6,1.2c1.7,0.8,2.8,1.8,3.5,3.1c0.7,1.2,1,3.5,1,6.8l-0.1,8.9
		c0,2.5,0.1,4.4,0.4,5.6c0.2,1.2,0.7,2.5,1.4,3.9h-7.5c-0.2-0.5-0.4-1.3-0.7-2.3c-0.1-0.5-0.2-0.7-0.3-0.9c-1.3,1.3-2.7,2.2-4.2,2.9
		c-1.5,0.6-3.1,0.9-4.7,0.9c-3,0-5.3-0.8-7-2.4c-1.7-1.6-2.6-3.6-2.6-6.1c0-1.6,0.4-3.1,1.2-4.3c0.8-1.3,1.9-2.3,3.3-2.9
		c1.4-0.7,3.4-1.3,6.1-1.8c3.6-0.7,6-1.3,7.4-1.9v-0.8c0-1.5-0.4-2.5-1.1-3.1c-0.7-0.6-2.1-0.9-4.1-0.9c-1.4,0-2.4,0.3-3.2,0.8
		C379.7,337.9,379.1,338.8,378.7,340.2"/>
	<path class="st0" d="M408.6,345.2c0,3,0.5,5.2,1.4,6.6c1.3,2,3.1,3,5.3,3c1.7,0,3.1-0.7,4.3-2.2c1.2-1.4,1.8-3.7,1.8-6.8
		c0-3.3-0.6-5.7-1.8-7.1c-1.2-1.5-2.7-2.2-4.6-2.2c-1.8,0-3.3,0.7-4.6,2.1C409.2,340.1,408.6,342.3,408.6,345.2 M401,360.2v-39.8
		h7.6v14.3c2.3-2.7,5.1-4,8.4-4c3.5,0,6.4,1.3,8.7,3.8c2.3,2.5,3.4,6.2,3.4,10.9c0,4.9-1.2,8.7-3.5,11.4c-2.3,2.7-5.2,4-8.5,4
		c-1.6,0-3.3-0.4-4.9-1.2c-1.6-0.8-3-2-4.1-3.6v4.2H401z"/>
	<path class="st0" d="M438.8,345.8c0,2.9,0.7,5,2,6.6c1.4,1.5,3,2.3,5,2.3c2,0,3.7-0.8,5-2.3c1.3-1.5,2-3.7,2-6.6c0-2.8-0.7-5-2-6.5
		c-1.3-1.5-3-2.3-5-2.3c-2,0-3.7,0.8-5,2.3C439.5,340.7,438.8,342.9,438.8,345.8 M431,345.4c0-2.5,0.6-5,1.9-7.3
		c1.2-2.4,3-4.2,5.3-5.4c2.3-1.2,4.8-1.9,7.7-1.9c4.4,0,7.9,1.4,10.7,4.2c2.8,2.8,4.2,6.4,4.2,10.7c0,4.4-1.4,8-4.2,10.8
		c-2.8,2.9-6.4,4.3-10.6,4.3c-2.6,0-5.2-0.6-7.6-1.8c-2.4-1.2-4.2-2.9-5.5-5.2C431.7,351.5,431,348.7,431,345.4"/>
	<path class="st0" d="M471.5,360.2h-7.6v-28.8h7.1v4.1c1.2-1.9,2.3-3.2,3.3-3.8c1-0.6,2.1-0.9,3.3-0.9c1.7,0,3.4,0.5,5,1.4l-2.4,6.6
		c-1.3-0.8-2.5-1.2-3.6-1.2c-1.1,0-2,0.3-2.7,0.9c-0.7,0.6-1.3,1.6-1.7,3.2c-0.4,1.5-0.6,4.7-0.6,9.7V360.2z"/>
	<path class="st0" d="M499.2,346.4c-1,0.3-2.5,0.7-4.6,1.2c-2.1,0.5-3.5,0.9-4.2,1.3c-1,0.7-1.5,1.6-1.5,2.7c0,1.1,0.4,2,1.2,2.8
		c0.8,0.8,1.8,1.2,3,1.2c1.4,0,2.7-0.4,3.9-1.4c0.9-0.7,1.5-1.5,1.8-2.5c0.2-0.6,0.3-1.9,0.3-3.7V346.4z M489,340.2l-6.9-1.2
		c0.8-2.8,2.1-4.8,4-6.2c1.9-1.3,4.7-2,8.5-2c3.4,0,5.9,0.4,7.6,1.2c1.7,0.8,2.8,1.8,3.5,3.1c0.7,1.2,1,3.5,1,6.8l-0.1,8.9
		c0,2.5,0.1,4.4,0.4,5.6c0.2,1.2,0.7,2.5,1.4,3.9h-7.5c-0.2-0.5-0.4-1.3-0.7-2.3c-0.1-0.5-0.2-0.7-0.3-0.9c-1.3,1.3-2.7,2.2-4.2,2.9
		c-1.5,0.6-3.1,0.9-4.7,0.9c-3,0-5.3-0.8-7-2.4c-1.7-1.6-2.6-3.6-2.6-6.1c0-1.6,0.4-3.1,1.2-4.3c0.8-1.3,1.9-2.3,3.3-2.9
		c1.4-0.7,3.4-1.3,6.1-1.8c3.6-0.7,6-1.3,7.4-1.9v-0.8c0-1.5-0.4-2.5-1.1-3.1c-0.7-0.6-2.1-0.9-4.1-0.9c-1.4,0-2.4,0.3-3.2,0.8
		C490.1,337.9,489.5,338.8,489,340.2"/>
	<path class="st0" d="M524.9,331.4v6.1h-5.2v11.6c0,2.4,0,3.7,0.1,4.1c0.1,0.4,0.3,0.7,0.7,1c0.3,0.3,0.8,0.4,1.3,0.4
		c0.7,0,1.7-0.2,3.1-0.7l0.7,5.9c-1.8,0.8-3.8,1.1-6,1.1c-1.4,0-2.6-0.2-3.7-0.7c-1.1-0.5-1.9-1.1-2.4-1.8c-0.5-0.7-0.9-1.7-1.1-3
		c-0.2-0.9-0.2-2.7-0.2-5.4v-12.6h-3.5v-6.1h3.5v-5.7l7.6-4.4v10.2H524.9z"/>
	<path class="st0" d="M533.8,345.8c0,2.9,0.7,5,2,6.6c1.4,1.5,3,2.3,5,2.3c2,0,3.7-0.8,5-2.3c1.3-1.5,2-3.7,2-6.6c0-2.8-0.7-5-2-6.5
		c-1.3-1.5-3-2.3-5-2.3c-2,0-3.7,0.8-5,2.3C534.5,340.7,533.8,342.9,533.8,345.8 M526,345.4c0-2.5,0.6-5,1.9-7.3
		c1.2-2.4,3-4.2,5.3-5.4c2.3-1.2,4.8-1.9,7.7-1.9c4.4,0,7.9,1.4,10.7,4.2c2.8,2.8,4.2,6.4,4.2,10.7c0,4.4-1.4,8-4.2,10.8
		c-2.8,2.9-6.4,4.3-10.6,4.3c-2.6,0-5.2-0.6-7.6-1.8c-2.4-1.2-4.2-2.9-5.5-5.2C526.6,351.5,526,348.7,526,345.4"/>
	<path class="st0" d="M566.5,360.2h-7.6v-28.8h7.1v4.1c1.2-1.9,2.3-3.2,3.3-3.8c1-0.6,2.1-0.9,3.3-0.9c1.7,0,3.4,0.5,5,1.4l-2.4,6.6
		c-1.3-0.8-2.5-1.2-3.6-1.2c-1.1,0-2,0.3-2.7,0.9c-0.7,0.6-1.3,1.6-1.7,3.2c-0.4,1.5-0.6,4.7-0.6,9.7V360.2z"/>
	<path class="st0" d="M574.7,331.4h8.1l6.9,20.5l6.7-20.5h7.9l-10.2,27.7l-1.8,5c-0.7,1.7-1.3,3-1.9,3.8c-0.6,0.9-1.3,1.6-2.1,2.2
		c-0.8,0.6-1.8,1-2.9,1.3c-1.1,0.3-2.4,0.5-3.9,0.5c-1.5,0-2.9-0.2-4.3-0.5l-0.7-6c1.2,0.2,2.3,0.3,3.2,0.3c1.8,0,3.1-0.5,3.9-1.6
		c0.8-1,1.5-2.4,2-4L574.7,331.4z"/>
	<path class="st0" d="M28.1,270.5H21v89.7h86.3v-47.3l-36,37.2H55.3c-11-0.4-26.7-8.8-27.2-28.8V270.5z"/>
	<rect x="67" y="270.5" class="st0" width="40.4" height="40.4"/>
	<path class="st1" d="M40.4,270.5V320c-0.2,10,7.6,16.7,15.6,17.7h30l14.1-13.9H59.3c-3.2-0.2-5-2.3-5.2-5v-48.4"/>
</g>
</svg>
